<?xml version="1.0" encoding="utf-8"?>
<!-- Generator: Adobe Illustrator 24.3.0, SVG Export Plug-In . SVG Version: 6.00 Build 0)  -->
<svg version="1.1" id="Layer_1" xmlns="http://www.w3.org/2000/svg" xmlns:xlink="http://www.w3.org/1999/xlink" x="0px" y="0px"
	 viewBox="0 0 595.3 841.9" style="enable-background:new 0 0 595.3 841.9;" xml:space="preserve">
<style type="text/css">
	.st0{stroke:#000000;stroke-miterlimit:10;}
	.st1{stroke:#000000;stroke-miterlimit:10.0004;}
	.st2{stroke:#000000;stroke-width:1;stroke-miterlimit:10.0005;}
	.st3{fill:#DAD7D6;stroke:#000000;stroke-miterlimit:10;}
	.st4{fill:#DAD7D6;}
	.st5{fill:#FFFFFF;stroke:#000000;stroke-miterlimit:10;}
	.st6{fill:none;}
	.st7{fill:#3CC4F3;}
	.st8{fill:#E31E26;}
	.st9{fill:#414DA1;}
	.st10{fill:#EE264F;}
	.st11{font-family:'LatinWide';}
	.st12{font-size:222.5144px;}
	.st13{fill:none;stroke:#F3EB2E;stroke-miterlimit:10;}
	.st14{fill:#F4EA1B;}
	.st15{fill:none;stroke:#36C6F4;stroke-miterlimit:10;}
	.st16{fill:#36C6F4;}
	.st17{fill:none;stroke:#ED202A;stroke-miterlimit:10;}
	.st18{fill:#3F4DA1;}
	.st19{fill:#77C043;}
	.st20{font-size:222.5145px;}
	.st21{fill:none;stroke:#FBAD2B;stroke-miterlimit:10;}
	.st22{fill:#2A479D;}
	.st23{font-family:'ArialMT';}
	.st24{font-size:321.2549px;}
	.st25{fill:none;stroke:#000000;stroke-miterlimit:10;}
	.st26{font-size:321.9579px;}
</style>
<g>
	<g>
		<g>
			<path class="st0" d="M280.6,393.1c0,35.5-17.5,64.2-39.2,64.2c-21.6,0-39.2-28.7-39.2-64.2s17.5-64.2,39.2-64.2
				C263.1,329,280.6,357.7,280.6,393.1z"/>
			<path class="st1" d="M229.2,330.4c-1.1,15.2-9.9,27-19.5,26.4c-9.6-0.7-16.5-13.5-15.3-28.8c1.1-15.2,9.9-27,19.5-26.4
				C223.4,302.3,230.4,315.1,229.2,330.4z"/>
			
				<ellipse transform="matrix(0.9969 -7.871252e-02 7.871252e-02 0.9969 -25.0688 22.2184)" class="st2" cx="269.3" cy="329.1" rx="17.5" ry="27.7"/>
			<path class="st3" d="M269.8,427.7c0,13.4-12.7,24.2-28.3,24.2s-28.3-10.8-28.3-24.2s12.7-24.2,28.3-24.2S269.8,414.2,269.8,427.7
				z"/>
			
				<ellipse transform="matrix(0.9996 -2.847901e-02 2.847901e-02 0.9996 -10.877 6.6951)" class="st4" cx="229.6" cy="385.2" rx="16.7" ry="45.7"/>
			
				<ellipse transform="matrix(2.860549e-02 -0.9996 0.9996 2.860549e-02 -139.5264 626.8489)" class="st4" cx="252.8" cy="385.2" rx="45.6" ry="16.7"/>
			<ellipse cx="240.5" cy="417.6" rx="6.6" ry="4.5"/>
			<ellipse class="st5" cx="232.8" cy="382.6" rx="4.9" ry="21.4"/>
			<ellipse class="st5" cx="249.1" cy="383.3" rx="4.9" ry="21.4"/>
			<ellipse cx="232.8" cy="393.1" rx="3.7" ry="10.7"/>
			<ellipse cx="249.1" cy="393.4" rx="3.7" ry="10.7"/>
			<path class="st0" d="M229.2,406.6c0,0,4.9-4.8,11.4-4.7c6.7,0.1,11.7,5.4,11.7,5.4s-4.9-5.3-11.7-5.4
				C234,401.8,229.2,406.6,229.2,406.6z"/>
			<polygon class="st6" points="201.3,461.6 209.8,461.6 209.8,461.6 			"/>
			<path class="st5" d="M272.9,458.1"/>
			<path d="M258.6,461.6L258.6,461.6z"/>
			<path d="M264.7,460.8L264.7,460.8z"/>
			<path class="st0" d="M219.9,415.8c0.1-0.6,8.6,13.9,20.5,14.7c13,0.8,22.5-15.1,22.6-14.6c0.1,0.6-9.7,18.2-22.8,17.2
				C228.3,432.3,219.8,416.4,219.9,415.8z"/>
			<path class="st4" d="M241.5,441.9L241.5,441.9z"/>
			<path class="st0" d="M232,429.9c0.4-1.9,3.4,2.2,9.4,2.6c6.3,0.5,9.4-3.5,9.9-1.6c0.6,2.6-4.4,14.7-10.1,14.2
				C235.7,444.6,231.4,432.6,232,429.9z"/>
			<path class="st0" d="M217.1,422.9c0.1,0.3,2.7-1.6,3.7-5.9c1-4.2,0.1-8.5-0.1-8.3c-0.3,0.1,0.3,3.2-0.7,7.2
				C218.9,420.5,216.9,422.6,217.1,422.9z"/>
			<path class="st0" d="M266.3,422.9c-0.1,0.3-2.7-1.6-3.7-5.9c-1-4.2-0.1-8.5,0.1-8.3c0.3,0.1-0.3,3.2,0.7,7.2
				C264.6,420.5,266.4,422.6,266.3,422.9z"/>
			<path class="st0" d="M211.9,455.8"/>
		</g>
		<polygon class="st6" points="181.8,222.1 191.3,222.1 191.3,222.1 		"/>
		<polygon class="st6" points="162.8,199.3 175.8,199.3 175.8,199.3 		"/>
		<path class="st7" d="M165.2,255.3L165.2,255.3z"/>
		<g>
			<path class="st8" d="M234.6,437.3c-0.3,3.8,2.6,6.9,6,7.3c3.9,0.6,8.2-2.6,8.2-7L234.6,437.3z"/>
		</g>
	</g>
	<g>
		<line class="st6" x1="15.1" y1="16.1" x2="15.1" y2="493.7"/>
		<rect x="12.2" y="16.1" class="st9" width="5.7" height="477.7"/>
	</g>
	<text transform="matrix(0.2991 0 0 1 24.582 486.4434)" class="st10 st11 st12">M</text>
	<text transform="matrix(0.2991 0 0 1 25.0054 485.4434)" class="st13 st11 st12">M</text>
	<text transform="matrix(0.2659 0 0 1 341.6299 486.4434)" class="st14 st11 st12">U</text>
	<text transform="matrix(0.2659 0 0 1 341.2422 486.4424)" class="st15 st11 st12">U</text>
	<text transform="matrix(0.333 0 0 1 418.1426 486.4434)" class="st16 st11 st12">S</text>
	<text transform="matrix(0.333 0 0 1 417.4658 486.4434)" class="st17 st11 st12">S</text>
	<g>
		<line class="st6" x1="584.3" y1="492.6" x2="14" y2="492.6"/>
		<rect x="14" y="489.8" class="st18" width="570.2" height="5.7"/>
	</g>
	<text transform="matrix(0.4533 0 0 1 495.1963 486.4424)" class="st19 st11 st20">I</text>
	<text transform="matrix(0.4533 0 0 1 495.0195 486.4424)" class="st21 st11 st20">I</text>
	<text transform="matrix(0.9044 0 0 1 127.2715 485.4434)" class="st22 st23 st24">O</text>
	<text transform="matrix(0.9042 0 0 1 126.1084 486.4424)" class="st25 st23 st26">O</text>
</g>
</svg>
